<svg width="136" height="37" viewBox="0 0 136 37" fill="none" xmlns="http://www.w3.org/2000/svg">
<path d="M31.2 23V8H34.88C36.44 8 37.66 8.32667 38.54 8.98C39.42 9.63333 39.86 10.6133 39.86 11.92C39.86 13.6267 39.2267 14.7733 37.96 15.36C38.72 15.64 39.28 16.0733 39.64 16.66C40.0133 17.2333 40.2 17.9933 40.2 18.94C40.2 20.2333 39.7533 21.2333 38.86 21.94C37.9667 22.6467 36.6533 23 34.92 23H31.2ZM34.14 14.32H35.1C35.7 14.32 36.1733 14.1333 36.52 13.76C36.88 13.3733 37.06 12.86 37.06 12.22C37.06 10.9533 36.3333 10.32 34.88 10.32H34.14V14.32ZM34.14 20.68H34.92C36.5067 20.68 37.3 19.9733 37.3 18.56C37.3 17.8667 37.1067 17.36 36.72 17.04C36.3467 16.72 35.7467 16.56 34.92 16.56H34.14V20.68ZM41.8017 23V12L44.6017 11.66V23H41.8017ZM41.9217 10.58V7.92H44.4817V10.58H41.9217ZM50.3645 26.36C49.0579 26.36 48.0045 26.12 47.2045 25.64C46.4045 25.1733 46.0045 24.5333 46.0045 23.72C46.0045 23.2533 46.1379 22.8467 46.4045 22.5C46.6845 22.1533 47.0712 21.9 47.5645 21.74C46.9379 21.3667 46.6245 20.82 46.6245 20.1C46.6245 19.2467 47.1112 18.58 48.0845 18.1C47.5512 17.7933 47.1312 17.3933 46.8245 16.9C46.5179 16.4067 46.3645 15.8533 46.3645 15.24C46.3645 14.5467 46.5445 13.9267 46.9045 13.38C47.2645 12.8333 47.7579 12.4 48.3845 12.08C49.0112 11.76 49.7179 11.6 50.5045 11.6C51.3312 11.6 52.0579 11.7733 52.6845 12.12C52.8179 11.48 53.0712 10.9067 53.4445 10.4C53.8179 9.89333 54.2712 9.56 54.8045 9.4L55.5445 11.68C54.7579 11.8933 54.1045 12.26 53.5845 12.78C53.9045 13.1 54.1512 13.4733 54.3245 13.9C54.5112 14.3133 54.6045 14.76 54.6045 15.24C54.6045 15.92 54.4312 16.52 54.0845 17.04C53.7379 17.56 53.2512 17.9667 52.6245 18.26C52.0112 18.5533 51.3045 18.7 50.5045 18.7C50.2779 18.7 50.0579 18.6867 49.8445 18.66C49.6312 18.6333 49.4245 18.6 49.2245 18.56C49.0245 18.68 48.9245 18.8467 48.9245 19.06C48.9245 19.2333 49.0045 19.3867 49.1645 19.52C49.3379 19.6533 49.5979 19.7333 49.9445 19.76L51.9445 19.94C53.0112 20.0333 53.8379 20.34 54.4245 20.86C55.0112 21.3667 55.3045 22.0867 55.3045 23.02C55.3045 24.0333 54.8712 24.84 54.0045 25.44C53.1512 26.0533 51.9379 26.36 50.3645 26.36ZM50.4845 17.02C50.8712 17.02 51.1779 16.8533 51.4045 16.52C51.6312 16.1733 51.7445 15.72 51.7445 15.16C51.7445 14.5867 51.6312 14.1333 51.4045 13.8C51.1779 13.4533 50.8712 13.28 50.4845 13.28C50.0979 13.28 49.7912 13.4533 49.5645 13.8C49.3379 14.1333 49.2245 14.58 49.2245 15.14C49.2245 15.7133 49.3379 16.1733 49.5645 16.52C49.8045 16.8533 50.1112 17.02 50.4845 17.02ZM50.5645 24.36C51.2179 24.36 51.7245 24.28 52.0845 24.12C52.4445 23.96 52.6245 23.7133 52.6245 23.38C52.6245 23.0733 52.5112 22.84 52.2845 22.68C52.0579 22.5067 51.6512 22.3933 51.0645 22.34L49.0045 22.14C48.9379 22.14 48.8912 22.1333 48.8645 22.12C48.6245 22.3867 48.5045 22.6933 48.5045 23.04C48.5045 23.4933 48.6979 23.8267 49.0845 24.04C49.4712 24.2533 49.9645 24.36 50.5645 24.36ZM57.0203 23V8H60.7003C62.2603 8 63.4803 8.32667 64.3603 8.98C65.2403 9.63333 65.6803 10.6133 65.6803 11.92C65.6803 13.6267 65.047 14.7733 63.7803 15.36C64.5403 15.64 65.1003 16.0733 65.4603 16.66C65.8336 17.2333 66.0203 17.9933 66.0203 18.94C66.0203 20.2333 65.5736 21.2333 64.6803 21.94C63.787 22.6467 62.4736 23 60.7403 23H57.0203ZM59.9603 14.32H60.9203C61.5203 14.32 61.9936 14.1333 62.3403 13.76C62.7003 13.3733 62.8803 12.86 62.8803 12.22C62.8803 10.9533 62.1536 10.32 60.7003 10.32H59.9603V14.32ZM59.9603 20.68H60.7403C62.327 20.68 63.1203 19.9733 63.1203 18.56C63.1203 17.8667 62.927 17.36 62.5403 17.04C62.167 16.72 61.567 16.56 60.7403 16.56H59.9603V20.68ZM66.622 26.1L67.102 23.86C67.2487 23.9267 67.3887 23.9733 67.522 24C67.6687 24.0267 67.822 24.04 67.982 24.04C68.4087 24.04 68.7554 23.9067 69.022 23.64C69.302 23.3733 69.442 22.98 69.442 22.46V21.98L66.702 11.94L69.522 11.56L71.062 18.82L72.642 11.72H75.082L72.362 22.86C72.082 23.9933 71.602 24.86 70.922 25.46C70.242 26.06 69.342 26.36 68.222 26.36C67.8754 26.36 67.5887 26.34 67.362 26.3C67.1354 26.26 66.8887 26.1933 66.622 26.1ZM80.0297 23.2C79.163 23.2 78.4564 22.9467 77.9097 22.44C77.363 21.9333 77.0897 21.12 77.0897 20V13.82H75.7297V11.72H77.2097L77.4897 9.18L79.8897 8.88V11.72H82.0897L81.8297 13.82H79.8897V19.44C79.8897 19.9467 79.9964 20.32 80.2097 20.56C80.4364 20.8 80.743 20.92 81.1297 20.92C81.303 20.92 81.4564 20.9133 81.5897 20.9C81.723 20.8733 81.863 20.8467 82.0097 20.82L81.7697 22.86C81.5297 22.9667 81.2697 23.0467 80.9897 23.1C80.7097 23.1667 80.3897 23.2 80.0297 23.2ZM86.988 23.26C85.988 23.26 85.1746 23.0067 84.548 22.5C83.9346 21.98 83.4813 21.2867 83.188 20.42C82.908 19.54 82.768 18.56 82.768 17.48C82.768 16.3333 82.9346 15.32 83.268 14.44C83.6013 13.5467 84.0813 12.8533 84.708 12.36C85.3346 11.8533 86.088 11.6 86.968 11.6C87.8746 11.6 88.6146 11.8067 89.188 12.22C89.7613 12.6333 90.1813 13.1933 90.448 13.9C90.7146 14.5933 90.848 15.3867 90.848 16.28C90.848 16.8933 90.828 17.54 90.788 18.22H85.608C85.6213 18.6867 85.668 19.1467 85.748 19.6C85.828 20.0533 85.968 20.4267 86.168 20.72C86.368 21 86.6546 21.14 87.028 21.14C87.4813 21.14 87.788 20.96 87.948 20.6C88.1213 20.24 88.2346 19.84 88.288 19.4L90.768 19.92C90.5813 20.96 90.148 21.78 89.468 22.38C88.8013 22.9667 87.9746 23.26 86.988 23.26ZM85.608 16.44H88.268V16.16C88.268 15.7867 88.2346 15.4133 88.168 15.04C88.1013 14.6533 87.9746 14.3333 87.788 14.08C87.6146 13.8133 87.3613 13.68 87.028 13.68C86.6813 13.68 86.408 13.82 86.208 14.1C86.008 14.3667 85.8613 14.7133 85.768 15.14C85.688 15.5667 85.6346 16 85.608 16.44ZM92.6453 23V8H96.3253C97.8853 8 99.1053 8.32667 99.9853 8.98C100.865 9.63333 101.305 10.6133 101.305 11.92C101.305 13.6267 100.672 14.7733 99.4053 15.36C100.165 15.64 100.725 16.0733 101.085 16.66C101.459 17.2333 101.645 17.9933 101.645 18.94C101.645 20.2333 101.199 21.2333 100.305 21.94C99.412 22.6467 98.0986 23 96.3653 23H92.6453ZM95.5853 14.32H96.5453C97.1453 14.32 97.6186 14.1333 97.9653 13.76C98.3253 13.3733 98.5053 12.86 98.5053 12.22C98.5053 10.9533 97.7786 10.32 96.3253 10.32H95.5853V14.32ZM95.5853 20.68H96.3653C97.952 20.68 98.7453 19.9733 98.7453 18.56C98.7453 17.8667 98.552 17.36 98.1653 17.04C97.792 16.72 97.192 16.56 96.3653 16.56H95.5853V20.68ZM107.164 23.26C106.164 23.26 105.35 23.0067 104.724 22.5C104.11 21.98 103.657 21.2867 103.364 20.42C103.084 19.54 102.944 18.56 102.944 17.48C102.944 16.3333 103.11 15.32 103.444 14.44C103.777 13.5467 104.257 12.8533 104.884 12.36C105.51 11.8533 106.264 11.6 107.144 11.6C108.05 11.6 108.79 11.8067 109.364 12.22C109.937 12.6333 110.357 13.1933 110.624 13.9C110.89 14.5933 111.024 15.3867 111.024 16.28C111.024 16.8933 111.004 17.54 110.964 18.22H105.784C105.797 18.6867 105.844 19.1467 105.924 19.6C106.004 20.0533 106.144 20.4267 106.344 20.72C106.544 21 106.83 21.14 107.204 21.14C107.657 21.14 107.964 20.96 108.124 20.6C108.297 20.24 108.41 19.84 108.464 19.4L110.944 19.92C110.757 20.96 110.324 21.78 109.644 22.38C108.977 22.9667 108.15 23.26 107.164 23.26ZM105.784 16.44H108.444V16.16C108.444 15.7867 108.41 15.4133 108.344 15.04C108.277 14.6533 108.15 14.3333 107.964 14.08C107.79 13.8133 107.537 13.68 107.204 13.68C106.857 13.68 106.584 13.82 106.384 14.1C106.184 14.3667 106.037 14.7133 105.944 15.14C105.864 15.5667 105.81 16 105.784 16.44ZM112.621 23V12.06L115.301 11.74V14.52C115.461 13.6533 115.781 12.94 116.261 12.38C116.754 11.82 117.308 11.54 117.921 11.54C118.441 11.54 118.828 11.6667 119.081 11.92L118.481 14.64C118.201 14.44 117.861 14.34 117.461 14.34C116.888 14.34 116.401 14.6333 116.001 15.22C115.614 15.8067 115.421 16.5933 115.421 17.58V23H112.621ZM120.16 23V12.06L122.84 11.74V14.52C123 13.6533 123.32 12.94 123.8 12.38C124.293 11.82 124.847 11.54 125.46 11.54C125.98 11.54 126.367 11.6667 126.62 11.92L126.02 14.64C125.74 14.44 125.4 14.34 125 14.34C124.427 14.34 123.94 14.6333 123.54 15.22C123.153 15.8067 122.96 16.5933 122.96 17.58V23H120.16ZM127.11 26.1L127.59 23.86C127.737 23.9267 127.877 23.9733 128.01 24C128.157 24.0267 128.31 24.04 128.47 24.04C128.897 24.04 129.244 23.9067 129.51 23.64C129.79 23.3733 129.93 22.98 129.93 22.46V21.98L127.19 11.94L130.01 11.56L131.55 18.82L133.13 11.72H135.57L132.85 22.86C132.57 23.9933 132.09 24.86 131.41 25.46C130.73 26.06 129.83 26.36 128.71 26.36C128.364 26.36 128.077 26.34 127.85 26.3C127.624 26.26 127.377 26.1933 127.11 26.1Z" fill="url(#paint0_linear_61_13)"/>
<path fill-rule="evenodd" clip-rule="evenodd" d="M23.1885 23.7245C27.4702 19.4504 27.4857 12.524 23.2232 8.25395C18.9607 3.98388 12.0343 3.98706 7.75262 8.26115C3.47097 12.5352 3.45544 19.4616 7.71792 23.7317C11.9804 28.0017 18.9068 27.9985 23.1885 23.7245ZM14.9123 13.0404C14.9153 11.7216 13.8486 10.6531 12.5298 10.6536C11.2111 10.6543 10.1396 11.7238 10.1366 13.0426C10.1337 14.3613 11.2004 15.4299 12.5191 15.4293L14.9069 15.4282L14.9123 13.0404ZM18.4246 15.4266C19.7433 15.426 20.8148 14.3564 20.8178 13.0376C20.8207 11.7189 19.754 10.6503 18.4353 10.6509C17.1165 10.6515 16.0451 11.7211 16.0421 13.0398L16.0368 15.4277L18.4246 15.4266ZM20.8045 18.943C20.8074 17.6243 19.7408 16.5557 18.422 16.5563L16.0342 16.5575L16.0288 18.9453C16.0259 20.264 17.0926 21.3326 18.4113 21.332C19.7301 21.3314 20.8016 20.2618 20.8045 18.943ZM12.5059 21.3347C11.1871 21.3353 10.1205 20.2668 10.1234 18.948C10.1264 17.6292 11.1978 16.5597 12.5166 16.559L14.9044 16.558L14.8991 18.9458C14.8961 20.2646 13.8247 21.3341 12.5059 21.3347Z" fill="#7F57F1"/>
<defs>
<linearGradient id="paint0_linear_61_13" x1="30" y1="19.5" x2="136" y2="19.5" gradientUnits="userSpaceOnUse">
<stop stop-color="#9A58F6"/>
<stop offset="1" stop-color="#D54DB0"/>
</linearGradient>
</defs>
</svg>
