<svg width="16" height="27" viewBox="0 0 16 27" fill="none" xmlns="http://www.w3.org/2000/svg">
<path d="M14.2514 9.76609L14.2235 21.7661L11.2795 21.7644C10.0315 21.7636 9.05611 21.5017 8.35333 20.9787C7.65054 20.4556 7.30036 19.6714 7.30279 18.626C7.30597 17.2607 7.81477 16.3437 8.82919 15.8749C8.22171 15.6506 7.77452 15.3037 7.48761 14.8342C7.19001 14.3753 7.04209 13.7672 7.04385 13.0099C7.04626 11.9752 7.40545 11.1754 8.12143 10.6105C8.83741 10.0456 9.88874 9.76356 11.2754 9.76436L14.2514 9.76609ZM11.8833 16.7087L11.1153 16.7083C10.6353 16.708 10.2562 16.8571 9.97822 17.1556C9.6895 17.4648 9.54454 17.8753 9.54335 18.3873C9.541 19.4007 10.1212 19.9077 11.2838 19.9084L11.8758 19.9087L11.8833 16.7087ZM11.8951 11.6207L11.2711 11.6204C10.0018 11.6196 9.36578 12.1846 9.36315 13.3152C9.36186 13.8699 9.51558 14.2753 9.82432 14.5315C10.1224 14.7877 10.6021 14.916 11.2634 14.9164L11.8874 14.9167L11.8951 11.6207Z" fill="url(#paint0_linear_52_8)"/>
<path d="M9.25141 7.76609L9.2235 19.7661L6.2795 19.7644C5.0315 19.7636 4.05611 19.5017 3.35333 18.9787C2.65054 18.4556 2.30036 17.6714 2.30279 16.626C2.30597 15.2607 2.81477 14.3437 3.82919 13.8749C3.22171 13.6506 2.77452 13.3037 2.48761 12.8342C2.19001 12.3753 2.04209 11.7672 2.04385 11.0099C2.04626 9.97524 2.40545 9.17545 3.12143 8.61053C3.83741 8.04562 4.88874 7.76356 6.27541 7.76436L9.25141 7.76609ZM6.88326 14.7087L6.11526 14.7083C5.63526 14.708 5.25624 14.8571 4.97822 15.1556C4.6895 15.4648 4.54454 15.8753 4.54335 16.3873C4.541 17.4007 5.12115 17.9077 6.28382 17.9084L6.87582 17.9087L6.88326 14.7087ZM6.89509 9.62072L6.27109 9.62036C5.00176 9.61962 4.36578 10.1846 4.36315 11.3152C4.36186 11.8699 4.51558 12.2753 4.82432 12.5315C5.12239 12.7877 5.60209 12.916 6.26343 12.9164L6.88743 12.9167L6.89509 9.62072Z" fill="url(#paint1_linear_52_8)"/>
<path d="M14.2415 4.76077L14.2206 16.7607H11.2766C10.0286 16.7607 9.05306 16.4994 8.34997 15.9768C7.64688 15.4541 7.29625 14.6701 7.29807 13.6248C7.30046 12.2594 7.80872 11.3421 8.82287 10.8728C8.21527 10.6488 7.76787 10.3021 7.48069 9.83276C7.18282 9.37409 7.03455 8.76609 7.03587 8.00876C7.03768 6.9741 7.39641 6.1741 8.11206 5.60876C8.82771 5.04343 9.87887 4.76077 11.2655 4.76077H14.2415ZM11.8774 11.7048H11.1094C10.6294 11.7048 10.2505 11.8541 9.97264 12.1528C9.6841 12.4621 9.53938 12.8728 9.53849 13.3848C9.53672 14.3981 10.1172 14.9048 11.2798 14.9048H11.8718L11.8774 11.7048ZM11.8863 6.61676H11.2623C9.99297 6.61676 9.35732 7.1821 9.35534 8.31276C9.35437 8.86743 9.50833 9.27276 9.81722 9.52876C10.1154 9.78476 10.5952 9.91276 11.2566 9.91276H11.8806L11.8863 6.61676Z" fill="url(#paint2_linear_52_8)"/>
<defs>
<linearGradient id="paint0_linear_52_8" x1="10.086" y1="26.7637" x2="10.0987" y2="5.00292" gradientUnits="userSpaceOnUse">
<stop stop-color="#D54DB0"/>
<stop offset="1" stop-color="#9A58F6"/>
</linearGradient>
<linearGradient id="paint1_linear_52_8" x1="5.08603" y1="24.7637" x2="5.09865" y2="3.00292" gradientUnits="userSpaceOnUse">
<stop stop-color="#D54DB0"/>
<stop offset="1" stop-color="#9A58F6"/>
</linearGradient>
<linearGradient id="paint2_linear_52_8" x1="10.086" y1="21.7607" x2="10.086" y2="1.22176e-06" gradientUnits="userSpaceOnUse">
<stop stop-color="#D54DB0"/>
<stop offset="1" stop-color="#9A58F6"/>
</linearGradient>
</defs>
</svg>
