<svg width="121" height="27" viewBox="0 0 121 27" fill="none" xmlns="http://www.w3.org/2000/svg">
<path d="M14.2514 9.76609L14.2235 21.7661L11.2795 21.7644C10.0315 21.7636 9.05611 21.5017 8.35333 20.9787C7.65054 20.4556 7.30036 19.6714 7.30279 18.626C7.30597 17.2607 7.81477 16.3437 8.82919 15.8749C8.22171 15.6506 7.77452 15.3037 7.48761 14.8342C7.19001 14.3753 7.04209 13.7672 7.04385 13.0099C7.04626 11.9752 7.40545 11.1754 8.12143 10.6105C8.83741 10.0456 9.88874 9.76356 11.2754 9.76436L14.2514 9.76609ZM11.8833 16.7087L11.1153 16.7083C10.6353 16.708 10.2562 16.8571 9.97822 17.1556C9.6895 17.4648 9.54454 17.8753 9.54335 18.3873C9.541 19.4007 10.1212 19.9077 11.2838 19.9084L11.8758 19.9087L11.8833 16.7087ZM11.8951 11.6207L11.2711 11.6204C10.0018 11.6196 9.36578 12.1846 9.36315 13.3152C9.36186 13.8699 9.51558 14.2753 9.82432 14.5315C10.1224 14.7877 10.6021 14.916 11.2634 14.9164L11.8874 14.9167L11.8951 11.6207Z" fill="url(#paint0_linear_52_2)"/>
<path d="M9.25141 7.76609L9.2235 19.7661L6.2795 19.7644C5.0315 19.7636 4.05611 19.5017 3.35333 18.9787C2.65054 18.4556 2.30036 17.6714 2.30279 16.626C2.30597 15.2607 2.81477 14.3437 3.82919 13.8749C3.22171 13.6506 2.77452 13.3037 2.48761 12.8342C2.19001 12.3753 2.04209 11.7672 2.04385 11.0099C2.04626 9.97524 2.40545 9.17545 3.12143 8.61053C3.83741 8.04562 4.88874 7.76356 6.27541 7.76436L9.25141 7.76609ZM6.88326 14.7087L6.11526 14.7083C5.63526 14.708 5.25624 14.8571 4.97822 15.1556C4.6895 15.4648 4.54454 15.8753 4.54335 16.3873C4.541 17.4007 5.12115 17.9077 6.28382 17.9084L6.87582 17.9087L6.88326 14.7087ZM6.89509 9.62072L6.27109 9.62036C5.00176 9.61962 4.36578 10.1846 4.36315 11.3152C4.36186 11.8699 4.51558 12.2753 4.82432 12.5315C5.12239 12.7877 5.60209 12.916 6.26343 12.9164L6.88743 12.9167L6.89509 9.62072Z" fill="url(#paint1_linear_52_2)"/>
<path d="M14.2415 4.76077L14.2206 16.7607H11.2766C10.0286 16.7607 9.05306 16.4994 8.34997 15.9768C7.64688 15.4541 7.29625 14.6701 7.29807 13.6248C7.30046 12.2594 7.80872 11.3421 8.82287 10.8728C8.21527 10.6488 7.76787 10.3021 7.48069 9.83276C7.18282 9.37409 7.03455 8.76609 7.03587 8.00876C7.03768 6.9741 7.39641 6.1741 8.11206 5.60876C8.82771 5.04343 9.87887 4.76077 11.2655 4.76077H14.2415ZM11.8774 11.7048H11.1094C10.6294 11.7048 10.2505 11.8541 9.97264 12.1528C9.6841 12.4621 9.53938 12.8728 9.53849 13.3848C9.53672 14.3981 10.1172 14.9048 11.2798 14.9048H11.8718L11.8774 11.7048ZM11.8863 6.61676H11.2623C9.99297 6.61676 9.35732 7.1821 9.35534 8.31276C9.35437 8.86743 9.50833 9.27276 9.81722 9.52876C10.1154 9.78476 10.5952 9.91276 11.2566 9.91276H11.8806L11.8863 6.61676Z" fill="url(#paint2_linear_52_2)"/>
<path d="M16.2 21V6H19.88C21.44 6 22.66 6.32667 23.54 6.98C24.42 7.63333 24.86 8.61333 24.86 9.92C24.86 11.6267 24.2267 12.7733 22.96 13.36C23.72 13.64 24.28 14.0733 24.64 14.66C25.0133 15.2333 25.2 15.9933 25.2 16.94C25.2 18.2333 24.7533 19.2333 23.86 19.94C22.9667 20.6467 21.6533 21 19.92 21H16.2ZM19.14 12.32H20.1C20.7 12.32 21.1733 12.1333 21.52 11.76C21.88 11.3733 22.06 10.86 22.06 10.22C22.06 8.95333 21.3333 8.32 19.88 8.32H19.14V12.32ZM19.14 18.68H19.92C21.5067 18.68 22.3 17.9733 22.3 16.56C22.3 15.8667 22.1067 15.36 21.72 15.04C21.3467 14.72 20.7467 14.56 19.92 14.56H19.14V18.68ZM26.8017 21V10L29.6017 9.66V21H26.8017ZM26.9217 8.58V5.92H29.4817V8.58H26.9217ZM35.3645 24.36C34.0579 24.36 33.0045 24.12 32.2045 23.64C31.4045 23.1733 31.0045 22.5333 31.0045 21.72C31.0045 21.2533 31.1379 20.8467 31.4045 20.5C31.6845 20.1533 32.0712 19.9 32.5645 19.74C31.9379 19.3667 31.6245 18.82 31.6245 18.1C31.6245 17.2467 32.1112 16.58 33.0845 16.1C32.5512 15.7933 32.1312 15.3933 31.8245 14.9C31.5179 14.4067 31.3645 13.8533 31.3645 13.24C31.3645 12.5467 31.5445 11.9267 31.9045 11.38C32.2645 10.8333 32.7579 10.4 33.3845 10.08C34.0112 9.76 34.7179 9.6 35.5045 9.6C36.3312 9.6 37.0579 9.77333 37.6845 10.12C37.8179 9.48 38.0712 8.90667 38.4445 8.4C38.8179 7.89333 39.2712 7.56 39.8045 7.4L40.5445 9.68C39.7579 9.89333 39.1045 10.26 38.5845 10.78C38.9045 11.1 39.1512 11.4733 39.3245 11.9C39.5112 12.3133 39.6045 12.76 39.6045 13.24C39.6045 13.92 39.4312 14.52 39.0845 15.04C38.7379 15.56 38.2512 15.9667 37.6245 16.26C37.0112 16.5533 36.3045 16.7 35.5045 16.7C35.2779 16.7 35.0579 16.6867 34.8445 16.66C34.6312 16.6333 34.4245 16.6 34.2245 16.56C34.0245 16.68 33.9245 16.8467 33.9245 17.06C33.9245 17.2333 34.0045 17.3867 34.1645 17.52C34.3379 17.6533 34.5979 17.7333 34.9445 17.76L36.9445 17.94C38.0112 18.0333 38.8379 18.34 39.4245 18.86C40.0112 19.3667 40.3045 20.0867 40.3045 21.02C40.3045 22.0333 39.8712 22.84 39.0045 23.44C38.1512 24.0533 36.9379 24.36 35.3645 24.36ZM35.4845 15.02C35.8712 15.02 36.1779 14.8533 36.4045 14.52C36.6312 14.1733 36.7445 13.72 36.7445 13.16C36.7445 12.5867 36.6312 12.1333 36.4045 11.8C36.1779 11.4533 35.8712 11.28 35.4845 11.28C35.0979 11.28 34.7912 11.4533 34.5645 11.8C34.3379 12.1333 34.2245 12.58 34.2245 13.14C34.2245 13.7133 34.3379 14.1733 34.5645 14.52C34.8045 14.8533 35.1112 15.02 35.4845 15.02ZM35.5645 22.36C36.2179 22.36 36.7245 22.28 37.0845 22.12C37.4445 21.96 37.6245 21.7133 37.6245 21.38C37.6245 21.0733 37.5112 20.84 37.2845 20.68C37.0579 20.5067 36.6512 20.3933 36.0645 20.34L34.0045 20.14C33.9379 20.14 33.8912 20.1333 33.8645 20.12C33.6245 20.3867 33.5045 20.6933 33.5045 21.04C33.5045 21.4933 33.6979 21.8267 34.0845 22.04C34.4712 22.2533 34.9645 22.36 35.5645 22.36ZM42.0203 21V6H45.7003C47.2603 6 48.4803 6.32667 49.3603 6.98C50.2403 7.63333 50.6803 8.61333 50.6803 9.92C50.6803 11.6267 50.047 12.7733 48.7803 13.36C49.5403 13.64 50.1003 14.0733 50.4603 14.66C50.8336 15.2333 51.0203 15.9933 51.0203 16.94C51.0203 18.2333 50.5736 19.2333 49.6803 19.94C48.787 20.6467 47.4736 21 45.7403 21H42.0203ZM44.9603 12.32H45.9203C46.5203 12.32 46.9936 12.1333 47.3403 11.76C47.7003 11.3733 47.8803 10.86 47.8803 10.22C47.8803 8.95333 47.1536 8.32 45.7003 8.32H44.9603V12.32ZM44.9603 18.68H45.7403C47.327 18.68 48.1203 17.9733 48.1203 16.56C48.1203 15.8667 47.927 15.36 47.5403 15.04C47.167 14.72 46.567 14.56 45.7403 14.56H44.9603V18.68ZM51.622 24.1L52.102 21.86C52.2487 21.9267 52.3887 21.9733 52.522 22C52.6687 22.0267 52.822 22.04 52.982 22.04C53.4087 22.04 53.7554 21.9067 54.022 21.64C54.302 21.3733 54.442 20.98 54.442 20.46V19.98L51.702 9.94L54.522 9.56L56.062 16.82L57.642 9.72H60.082L57.362 20.86C57.082 21.9933 56.602 22.86 55.922 23.46C55.242 24.06 54.342 24.36 53.222 24.36C52.8754 24.36 52.5887 24.34 52.362 24.3C52.1354 24.26 51.8887 24.1933 51.622 24.1ZM65.0297 21.2C64.163 21.2 63.4564 20.9467 62.9097 20.44C62.363 19.9333 62.0897 19.12 62.0897 18V11.82H60.7297V9.72H62.2097L62.4897 7.18L64.8897 6.88V9.72H67.0897L66.8297 11.82H64.8897V17.44C64.8897 17.9467 64.9964 18.32 65.2097 18.56C65.4364 18.8 65.743 18.92 66.1297 18.92C66.303 18.92 66.4564 18.9133 66.5897 18.9C66.723 18.8733 66.863 18.8467 67.0097 18.82L66.7697 20.86C66.5297 20.9667 66.2697 21.0467 65.9897 21.1C65.7097 21.1667 65.3897 21.2 65.0297 21.2ZM71.988 21.26C70.988 21.26 70.1746 21.0067 69.548 20.5C68.9346 19.98 68.4813 19.2867 68.188 18.42C67.908 17.54 67.768 16.56 67.768 15.48C67.768 14.3333 67.9346 13.32 68.268 12.44C68.6013 11.5467 69.0813 10.8533 69.708 10.36C70.3346 9.85333 71.088 9.6 71.968 9.6C72.8746 9.6 73.6146 9.80667 74.188 10.22C74.7613 10.6333 75.1813 11.1933 75.448 11.9C75.7146 12.5933 75.848 13.3867 75.848 14.28C75.848 14.8933 75.828 15.54 75.788 16.22H70.608C70.6213 16.6867 70.668 17.1467 70.748 17.6C70.828 18.0533 70.968 18.4267 71.168 18.72C71.368 19 71.6546 19.14 72.028 19.14C72.4813 19.14 72.788 18.96 72.948 18.6C73.1213 18.24 73.2346 17.84 73.288 17.4L75.768 17.92C75.5813 18.96 75.148 19.78 74.468 20.38C73.8013 20.9667 72.9746 21.26 71.988 21.26ZM70.608 14.44H73.268V14.16C73.268 13.7867 73.2346 13.4133 73.168 13.04C73.1013 12.6533 72.9746 12.3333 72.788 12.08C72.6146 11.8133 72.3613 11.68 72.028 11.68C71.6813 11.68 71.408 11.82 71.208 12.1C71.008 12.3667 70.8613 12.7133 70.768 13.14C70.688 13.5667 70.6346 14 70.608 14.44ZM77.6453 21V6H81.3253C82.8853 6 84.1053 6.32667 84.9853 6.98C85.8653 7.63333 86.3053 8.61333 86.3053 9.92C86.3053 11.6267 85.672 12.7733 84.4053 13.36C85.1653 13.64 85.7253 14.0733 86.0853 14.66C86.4586 15.2333 86.6453 15.9933 86.6453 16.94C86.6453 18.2333 86.1986 19.2333 85.3053 19.94C84.412 20.6467 83.0986 21 81.3653 21H77.6453ZM80.5853 12.32H81.5453C82.1453 12.32 82.6186 12.1333 82.9653 11.76C83.3253 11.3733 83.5053 10.86 83.5053 10.22C83.5053 8.95333 82.7786 8.32 81.3253 8.32H80.5853V12.32ZM80.5853 18.68H81.3653C82.952 18.68 83.7453 17.9733 83.7453 16.56C83.7453 15.8667 83.552 15.36 83.1653 15.04C82.792 14.72 82.192 14.56 81.3653 14.56H80.5853V18.68ZM92.1638 21.26C91.1638 21.26 90.3504 21.0067 89.7238 20.5C89.1104 19.98 88.6571 19.2867 88.3638 18.42C88.0838 17.54 87.9438 16.56 87.9438 15.48C87.9438 14.3333 88.1104 13.32 88.4438 12.44C88.7771 11.5467 89.2571 10.8533 89.8838 10.36C90.5104 9.85333 91.2638 9.6 92.1438 9.6C93.0504 9.6 93.7904 9.80667 94.3638 10.22C94.9371 10.6333 95.3571 11.1933 95.6238 11.9C95.8904 12.5933 96.0238 13.3867 96.0238 14.28C96.0238 14.8933 96.0038 15.54 95.9638 16.22H90.7838C90.7971 16.6867 90.8438 17.1467 90.9238 17.6C91.0038 18.0533 91.1438 18.4267 91.3438 18.72C91.5438 19 91.8304 19.14 92.2038 19.14C92.6571 19.14 92.9638 18.96 93.1238 18.6C93.2971 18.24 93.4104 17.84 93.4638 17.4L95.9438 17.92C95.7571 18.96 95.3238 19.78 94.6438 20.38C93.9771 20.9667 93.1504 21.26 92.1638 21.26ZM90.7838 14.44H93.4438V14.16C93.4438 13.7867 93.4104 13.4133 93.3438 13.04C93.2771 12.6533 93.1504 12.3333 92.9638 12.08C92.7904 11.8133 92.5371 11.68 92.2038 11.68C91.8571 11.68 91.5838 11.82 91.3838 12.1C91.1838 12.3667 91.0371 12.7133 90.9438 13.14C90.8638 13.5667 90.8104 14 90.7838 14.44ZM97.6211 21V10.06L100.301 9.74V12.52C100.461 11.6533 100.781 10.94 101.261 10.38C101.754 9.82 102.308 9.54 102.921 9.54C103.441 9.54 103.828 9.66667 104.081 9.92L103.481 12.64C103.201 12.44 102.861 12.34 102.461 12.34C101.888 12.34 101.401 12.6333 101.001 13.22C100.614 13.8067 100.421 14.5933 100.421 15.58V21H97.6211ZM105.16 21V10.06L107.84 9.74V12.52C108 11.6533 108.32 10.94 108.8 10.38C109.293 9.82 109.847 9.54 110.46 9.54C110.98 9.54 111.367 9.66667 111.62 9.92L111.02 12.64C110.74 12.44 110.4 12.34 110 12.34C109.427 12.34 108.94 12.6333 108.54 13.22C108.153 13.8067 107.96 14.5933 107.96 15.58V21H105.16ZM112.11 24.1L112.59 21.86C112.737 21.9267 112.877 21.9733 113.01 22C113.157 22.0267 113.31 22.04 113.47 22.04C113.897 22.04 114.244 21.9067 114.51 21.64C114.79 21.3733 114.93 20.98 114.93 20.46V19.98L112.19 9.94L115.01 9.56L116.55 16.82L118.13 9.72H120.57L117.85 20.86C117.57 21.9933 117.09 22.86 116.41 23.46C115.73 24.06 114.83 24.36 113.71 24.36C113.364 24.36 113.077 24.34 112.85 24.3C112.624 24.26 112.377 24.1933 112.11 24.1Z" fill="url(#paint3_linear_52_2)"/>
<defs>
<linearGradient id="paint0_linear_52_2" x1="10.086" y1="26.7637" x2="10.0987" y2="5.00292" gradientUnits="userSpaceOnUse">
<stop stop-color="#D54DB0"/>
<stop offset="1" stop-color="#9A58F6"/>
</linearGradient>
<linearGradient id="paint1_linear_52_2" x1="5.08603" y1="24.7637" x2="5.09865" y2="3.00292" gradientUnits="userSpaceOnUse">
<stop stop-color="#D54DB0"/>
<stop offset="1" stop-color="#9A58F6"/>
</linearGradient>
<linearGradient id="paint2_linear_52_2" x1="10.086" y1="21.7607" x2="10.086" y2="1.22176e-06" gradientUnits="userSpaceOnUse">
<stop stop-color="#D54DB0"/>
<stop offset="1" stop-color="#9A58F6"/>
</linearGradient>
<linearGradient id="paint3_linear_52_2" x1="15" y1="13.5" x2="121" y2="13.5" gradientUnits="userSpaceOnUse">
<stop stop-color="#9389F9"/>
<stop offset="1" stop-color="#D54DB0"/>
</linearGradient>
</defs>
</svg>
