<svg width="234" height="44" viewBox="0 0 234 44" fill="none" xmlns="http://www.w3.org/2000/svg">
    <path d="M45.736 33V32.328L46.248 32.168C46.696 31.9973 46.9947 31.7733 47.144 31.496C47.3147 31.2187 47.4 30.8453 47.4 30.376C47.4213 29.16 47.432 27.944 47.432 26.728C47.432 25.4907 47.432 24.2533 47.432 23.016V21.864C47.432 20.6267 47.4213 19.4 47.4 18.184C47.4 16.9467 47.4 15.7093 47.4 14.472C47.4 13.96 47.3253 13.576 47.176 13.32C47.0267 13.0427 46.7173 12.8293 46.248 12.68L45.736 12.52V11.848H54.76C57.32 11.848 59.176 12.328 60.328 13.288C61.48 14.2267 62.056 15.4213 62.056 16.872C62.056 17.9813 61.6507 18.984 60.84 19.88C60.0293 20.7547 58.6107 21.384 56.584 21.768C58.9307 22.024 60.6267 22.632 61.672 23.592C62.7173 24.552 63.24 25.7253 63.24 27.112C63.24 27.7947 63.0907 28.488 62.792 29.192C62.4933 29.8747 61.9813 30.504 61.256 31.08C60.552 31.656 59.592 32.1253 58.376 32.488C57.16 32.8293 55.624 33 53.768 33H45.736ZM51.976 21.544H53.48C54.9307 21.544 55.976 21.224 56.616 20.584C57.2773 19.9227 57.608 18.8027 57.608 17.224C57.608 15.5813 57.3093 14.4293 56.712 13.768C56.1147 13.1067 55.176 12.776 53.896 12.776H51.976V21.544ZM51.976 32.072H53.736C55.336 32.072 56.5307 31.6773 57.32 30.888C58.1093 30.0987 58.504 28.8293 58.504 27.08C58.504 25.3947 58.12 24.2107 57.352 23.528C56.6053 22.824 55.368 22.472 53.64 22.472H51.976V32.072ZM68.384 15.4C67.68 15.4 67.0827 15.176 66.592 14.728C66.1013 14.28 65.856 13.7147 65.856 13.032C65.856 12.328 66.1013 11.7627 66.592 11.336C67.0827 10.888 67.68 10.664 68.384 10.664C69.088 10.664 69.6853 10.888 70.176 11.336C70.6667 11.7627 70.912 12.328 70.912 13.032C70.912 13.7147 70.6667 14.28 70.176 14.728C69.6853 15.176 69.088 15.4 68.384 15.4ZM64.704 33V32.392L65.184 32.264C65.6107 32.136 65.8987 31.944 66.048 31.688C66.1973 31.432 66.2827 31.0907 66.304 30.664V24.776C66.304 24.1147 66.304 23.5067 66.304 22.952C66.304 22.376 66.2933 21.7893 66.272 21.192C66.272 20.7653 66.1867 20.4347 66.016 20.2C65.8667 19.944 65.5787 19.7733 65.152 19.688L64.704 19.592V19.016L70.304 17.16L70.688 17.512L70.592 22.056V30.696C70.592 31.1227 70.6667 31.464 70.816 31.72C70.9867 31.976 71.2747 32.168 71.68 32.296L72.032 32.392V33H64.704ZM80.3653 27.528C78.9573 27.528 77.7519 27.2933 76.7493 26.824V27.976C76.7493 28.616 77.0693 29 77.7093 29.128L83.4053 30.184C84.4933 30.3973 85.4533 30.664 86.2853 30.984C87.1173 31.2827 87.7679 31.72 88.2373 32.296C88.7066 32.8507 88.9412 33.608 88.9412 34.568C88.9412 35.592 88.5999 36.5413 87.9173 37.416C87.2559 38.312 86.2639 39.0267 84.9413 39.56C83.6399 40.1147 82.0079 40.392 80.0453 40.392C78.3599 40.392 77.0159 40.2107 76.0133 39.848C75.0319 39.5067 74.3279 39.0587 73.9013 38.504C73.4746 37.9493 73.2613 37.352 73.2613 36.712C73.2613 35.944 73.5173 35.176 74.0293 34.408C74.5626 33.64 75.2453 33 76.0773 32.488C74.7759 31.9973 74.1253 31.2187 74.1253 30.152C74.1253 29.7467 74.2213 29.3733 74.4133 29.032C74.6053 28.6907 74.8399 28.3493 75.1173 28.008L76.2693 26.568C74.7333 25.672 73.9653 24.2747 73.9653 22.376C73.9653 20.8187 74.5093 19.56 75.5973 18.6C76.7066 17.64 78.2959 17.16 80.3653 17.16C82.4346 17.16 84.0346 17.64 85.1653 18.6C85.8479 18.4933 86.4879 18.3227 87.0853 18.088C87.6826 17.8533 88.2373 17.5333 88.7493 17.128L89.1973 17.448V19.24H85.7413C86.4239 20.0933 86.7653 21.1387 86.7653 22.376C86.7653 23.8907 86.2106 25.128 85.1013 26.088C84.0133 27.048 82.4346 27.528 80.3653 27.528ZM80.3013 26.664C81.1973 26.664 81.8479 26.3227 82.2533 25.64C82.6799 24.936 82.8933 23.816 82.8933 22.28C82.8933 20.7653 82.6906 19.6773 82.2853 19.016C81.8799 18.3547 81.2506 18.024 80.3973 18.024C79.5439 18.024 78.9039 18.3653 78.4773 19.048C78.0719 19.7093 77.8693 20.808 77.8693 22.344C77.8693 23.88 78.0613 24.9893 78.4453 25.672C78.8293 26.3333 79.4479 26.664 80.3013 26.664ZM75.7573 35.784C75.7573 36.9573 76.1306 37.832 76.8773 38.408C77.6239 39.0053 78.8079 39.304 80.4293 39.304C82.2213 39.304 83.5439 39.0053 84.3973 38.408C85.2719 37.832 85.7093 37.064 85.7093 36.104C85.7093 35.5067 85.4853 35.0373 85.0373 34.696C84.6106 34.3547 83.8853 34.088 82.8613 33.896L77.1333 32.776C77.0479 32.7547 76.9626 32.7333 76.8773 32.712C76.5573 33.1387 76.2906 33.6293 76.0773 34.184C75.8639 34.7387 75.7573 35.272 75.7573 35.784ZM90.1735 33V32.328L90.6855 32.168C91.1335 31.9973 91.4322 31.7733 91.5815 31.496C91.7522 31.2187 91.8375 30.8453 91.8375 30.376C91.8588 29.16 91.8695 27.944 91.8695 26.728C91.8695 25.4907 91.8695 24.2533 91.8695 23.016V21.864C91.8695 20.6267 91.8588 19.4 91.8375 18.184C91.8375 16.9467 91.8375 15.7093 91.8375 14.472C91.8375 13.96 91.7628 13.576 91.6135 13.32C91.4642 13.0427 91.1548 12.8293 90.6855 12.68L90.1735 12.52V11.848H99.1975C101.758 11.848 103.614 12.328 104.766 13.288C105.918 14.2267 106.494 15.4213 106.494 16.872C106.494 17.9813 106.088 18.984 105.278 19.88C104.467 20.7547 103.048 21.384 101.022 21.768C103.368 22.024 105.064 22.632 106.11 23.592C107.155 24.552 107.678 25.7253 107.678 27.112C107.678 27.7947 107.528 28.488 107.23 29.192C106.931 29.8747 106.419 30.504 105.694 31.08C104.99 31.656 104.03 32.1253 102.814 32.488C101.598 32.8293 100.062 33 98.2055 33H90.1735ZM96.4135 21.544H97.9175C99.3682 21.544 100.414 21.224 101.054 20.584C101.715 19.9227 102.046 18.8027 102.046 17.224C102.046 15.5813 101.747 14.4293 101.15 13.768C100.552 13.1067 99.6135 12.776 98.3335 12.776H96.4135V21.544ZM96.4135 32.072H98.1735C99.7735 32.072 100.968 31.6773 101.758 30.888C102.547 30.0987 102.942 28.8293 102.942 27.08C102.942 25.3947 102.558 24.2107 101.79 23.528C101.043 22.824 99.8055 22.472 98.0775 22.472H96.4135V32.072ZM111.613 40.712C110.76 40.712 110.088 40.5093 109.597 40.104C109.106 39.6987 108.861 39.1653 108.861 38.504C108.861 37.9067 109.064 37.4267 109.469 37.064C109.896 36.7227 110.365 36.552 110.877 36.552C111.41 36.552 111.848 36.648 112.189 36.84C112.53 37.032 112.829 37.3093 113.085 37.672L113.277 37.928C113.768 38.5253 114.226 38.5147 114.653 37.896C114.93 37.5333 115.197 37.0853 115.453 36.552C115.73 36.0187 116.029 35.3147 116.349 34.44L110.269 19.912C110.12 19.5067 109.949 19.1973 109.757 18.984C109.565 18.7493 109.277 18.5573 108.893 18.408L108.349 18.216V17.64H116.253V18.216L115.581 18.408C115.112 18.5573 114.856 18.792 114.813 19.112C114.792 19.4107 114.866 19.8053 115.037 20.296L118.301 28.808L121.437 20.232C121.608 19.7627 121.672 19.368 121.629 19.048C121.586 18.728 121.32 18.5147 120.829 18.408L120.125 18.216V17.64H124.893V18.216L124.189 18.44C123.72 18.568 123.378 18.76 123.165 19.016C122.973 19.2507 122.792 19.6027 122.621 20.072L117.501 33.832C116.648 36.1787 115.773 37.9067 114.877 39.016C114.002 40.1467 112.914 40.712 111.613 40.712ZM132.126 33.448C130.803 33.448 129.758 33.128 128.99 32.488C128.243 31.8267 127.87 30.76 127.87 29.288C127.87 28.776 127.87 28.296 127.87 27.848C127.891 27.3787 127.902 26.8347 127.902 26.216V18.632H125.63V17.928L126.493 17.8C127.112 17.6933 127.635 17.5013 128.062 17.224C128.51 16.9467 128.915 16.5627 129.278 16.072L131.358 13.192H132.318L132.222 17.64H135.87V18.632H132.19V29.544C132.19 30.312 132.35 30.888 132.67 31.272C133.011 31.656 133.427 31.848 133.918 31.848C134.344 31.848 134.728 31.752 135.07 31.56C135.411 31.3467 135.752 31.0693 136.094 30.728L136.51 31.208C136.104 31.912 135.539 32.4667 134.814 32.872C134.088 33.256 133.192 33.448 132.126 33.448ZM145.516 17.16C146.86 17.16 148.012 17.4373 148.972 17.992C149.932 18.5467 150.668 19.3147 151.18 20.296C151.713 21.256 151.98 22.3653 151.98 23.624C151.98 23.9013 151.969 24.168 151.948 24.424C151.926 24.6587 151.884 24.8827 151.82 25.096H142.188C142.209 27.2933 142.614 28.872 143.404 29.832C144.214 30.792 145.388 31.272 146.924 31.272C147.99 31.272 148.854 31.1013 149.516 30.76C150.177 30.3973 150.785 29.896 151.34 29.256L151.852 29.736C151.212 30.9093 150.337 31.8267 149.228 32.488C148.14 33.128 146.838 33.448 145.324 33.448C143.809 33.448 142.476 33.128 141.324 32.488C140.172 31.848 139.265 30.9307 138.604 29.736C137.964 28.52 137.644 27.0693 137.644 25.384C137.644 23.6347 138.017 22.152 138.764 20.936C139.532 19.72 140.513 18.792 141.708 18.152C142.924 17.4907 144.193 17.16 145.516 17.16ZM145.356 18.088C144.737 18.088 144.193 18.2693 143.724 18.632C143.276 18.9733 142.913 19.592 142.636 20.488C142.38 21.3627 142.23 22.6 142.188 24.2H147.916C148.15 22.0453 148.065 20.488 147.66 19.528C147.254 18.568 146.486 18.088 145.356 18.088ZM153.361 33V32.328L153.873 32.168C154.321 31.9973 154.62 31.7733 154.769 31.496C154.94 31.2187 155.025 30.8453 155.025 30.376C155.046 29.16 155.057 27.944 155.057 26.728C155.057 25.4907 155.057 24.2533 155.057 23.016V21.864C155.057 20.6267 155.046 19.4 155.025 18.184C155.025 16.9467 155.025 15.7093 155.025 14.472C155.025 13.96 154.95 13.576 154.801 13.32C154.652 13.0427 154.342 12.8293 153.873 12.68L153.361 12.52V11.848H162.385C164.945 11.848 166.801 12.328 167.953 13.288C169.105 14.2267 169.681 15.4213 169.681 16.872C169.681 17.9813 169.276 18.984 168.465 19.88C167.654 20.7547 166.236 21.384 164.209 21.768C166.556 22.024 168.252 22.632 169.297 23.592C170.342 24.552 170.865 25.7253 170.865 27.112C170.865 27.7947 170.716 28.488 170.417 29.192C170.118 29.8747 169.606 30.504 168.881 31.08C168.177 31.656 167.217 32.1253 166.001 32.488C164.785 32.8293 163.249 33 161.393 33H153.361ZM159.601 21.544H161.105C162.556 21.544 163.601 21.224 164.241 20.584C164.902 19.9227 165.233 18.8027 165.233 17.224C165.233 15.5813 164.934 14.4293 164.337 13.768C163.74 13.1067 162.801 12.776 161.521 12.776H159.601V21.544ZM159.601 32.072H161.361C162.961 32.072 164.156 31.6773 164.945 30.888C165.734 30.0987 166.129 28.8293 166.129 27.08C166.129 25.3947 165.745 24.2107 164.977 23.528C164.23 22.824 162.993 22.472 161.265 22.472H159.601V32.072ZM180.453 17.16C181.797 17.16 182.949 17.4373 183.909 17.992C184.869 18.5467 185.605 19.3147 186.117 20.296C186.651 21.256 186.917 22.3653 186.917 23.624C186.917 23.9013 186.907 24.168 186.885 24.424C186.864 24.6587 186.821 24.8827 186.757 25.096H177.125C177.147 27.2933 177.552 28.872 178.341 29.832C179.152 30.792 180.325 31.272 181.861 31.272C182.928 31.272 183.792 31.1013 184.453 30.76C185.115 30.3973 185.723 29.896 186.277 29.256L186.789 29.736C186.149 30.9093 185.275 31.8267 184.165 32.488C183.077 33.128 181.776 33.448 180.261 33.448C178.747 33.448 177.413 33.128 176.261 32.488C175.109 31.848 174.203 30.9307 173.541 29.736C172.901 28.52 172.581 27.0693 172.581 25.384C172.581 23.6347 172.955 22.152 173.701 20.936C174.469 19.72 175.451 18.792 176.645 18.152C177.861 17.4907 179.131 17.16 180.453 17.16ZM180.293 18.088C179.675 18.088 179.131 18.2693 178.661 18.632C178.213 18.9733 177.851 19.592 177.573 20.488C177.317 21.3627 177.168 22.6 177.125 24.2H182.853C183.088 22.0453 183.003 20.488 182.597 19.528C182.192 18.568 181.424 18.088 180.293 18.088ZM188.547 33V32.392L189.027 32.232C189.454 32.1253 189.742 31.944 189.891 31.688C190.062 31.432 190.147 31.0907 190.147 30.664V21.288C190.126 20.8187 190.04 20.4667 189.891 20.232C189.742 19.976 189.454 19.8053 189.027 19.72L188.547 19.592V19.016L193.763 17.16L194.147 17.512L194.435 20.328V20.552C194.755 19.9547 195.16 19.4 195.651 18.888C196.142 18.376 196.675 17.96 197.251 17.64C197.827 17.32 198.403 17.16 198.979 17.16C199.79 17.16 200.398 17.3733 200.803 17.8C201.208 18.2267 201.411 18.7707 201.411 19.432C201.411 20.1573 201.208 20.712 200.803 21.096C200.398 21.4587 199.907 21.64 199.331 21.64C198.478 21.64 197.742 21.256 197.123 20.488L197.059 20.424C196.846 20.168 196.6 20.0293 196.323 20.008C196.067 19.9653 195.811 20.0933 195.555 20.392C195.342 20.6053 195.139 20.8613 194.947 21.16C194.776 21.4373 194.616 21.768 194.467 22.152V30.536C194.467 30.9413 194.552 31.2827 194.723 31.56C194.894 31.816 195.182 31.9973 195.587 32.104L196.547 32.392V33H188.547ZM202.453 33V32.392L202.933 32.232C203.36 32.1253 203.648 31.944 203.797 31.688C203.968 31.432 204.053 31.0907 204.053 30.664V21.288C204.032 20.8187 203.947 20.4667 203.797 20.232C203.648 19.976 203.36 19.8053 202.933 19.72L202.453 19.592V19.016L207.669 17.16L208.053 17.512L208.341 20.328V20.552C208.661 19.9547 209.067 19.4 209.557 18.888C210.048 18.376 210.581 17.96 211.157 17.64C211.733 17.32 212.309 17.16 212.885 17.16C213.696 17.16 214.304 17.3733 214.709 17.8C215.115 18.2267 215.317 18.7707 215.317 19.432C215.317 20.1573 215.115 20.712 214.709 21.096C214.304 21.4587 213.813 21.64 213.237 21.64C212.384 21.64 211.648 21.256 211.029 20.488L210.965 20.424C210.752 20.168 210.507 20.0293 210.229 20.008C209.973 19.9653 209.717 20.0933 209.461 20.392C209.248 20.6053 209.045 20.8613 208.853 21.16C208.683 21.4373 208.523 21.768 208.373 22.152V30.536C208.373 30.9413 208.459 31.2827 208.629 31.56C208.8 31.816 209.088 31.9973 209.493 32.104L210.453 32.392V33H202.453ZM219.644 40.712C218.791 40.712 218.119 40.5093 217.628 40.104C217.138 39.6987 216.892 39.1653 216.892 38.504C216.892 37.9067 217.095 37.4267 217.5 37.064C217.927 36.7227 218.396 36.552 218.908 36.552C219.442 36.552 219.879 36.648 220.22 36.84C220.562 37.032 220.86 37.3093 221.116 37.672L221.308 37.928C221.799 38.5253 222.258 38.5147 222.684 37.896C222.962 37.5333 223.228 37.0853 223.484 36.552C223.762 36.0187 224.06 35.3147 224.38 34.44L218.3 19.912C218.151 19.5067 217.98 19.1973 217.788 18.984C217.596 18.7493 217.308 18.5573 216.924 18.408L216.38 18.216V17.64H224.284V18.216L223.612 18.408C223.143 18.5573 222.887 18.792 222.844 19.112C222.823 19.4107 222.898 19.8053 223.068 20.296L226.332 28.808L229.468 20.232C229.639 19.7627 229.703 19.368 229.66 19.048C229.618 18.728 229.351 18.5147 228.86 18.408L228.156 18.216V17.64H232.924V18.216L232.22 18.44C231.751 18.568 231.41 18.76 231.196 19.016C231.004 19.2507 230.823 19.6027 230.652 20.072L225.532 33.832C224.679 36.1787 223.804 37.9067 222.908 39.016C222.034 40.1467 220.946 40.712 219.644 40.712Z" fill="white"/>
    <path fill-rule="evenodd" clip-rule="evenodd" d="M1.04165 16.6424C0.00591838 19.2006 -0.265077 22.0155 0.262973 24.7313C0.790959 27.447 2.09428 29.9416 4.00802 31.8995C5.92176 33.8574 8.36009 35.1908 11.0145 35.731C13.6691 36.2712 16.4205 35.9939 18.921 34.9343C21.4214 33.8747 23.5586 32.0802 25.0622 29.778C25.1023 29.7166 25.1419 29.6549 25.181 29.5929C25.2086 29.5492 25.236 29.5052 25.2632 29.4611V36H26.3158C29.0223 36 31.668 35.1789 33.9183 33.6405C36.1687 32.1023 37.9226 29.9157 38.9583 27.3575C39.9941 24.7994 40.2651 21.9845 39.737 19.2687C39.209 16.553 37.9058 14.0584 35.992 12.1005C34.0782 10.1426 31.6399 8.80921 28.9855 8.26904C26.3309 7.72881 23.5795 8.00606 21.079 9.06569C18.5786 10.1253 16.4414 11.9198 14.9378 14.222C14.8694 14.3268 14.8024 14.4325 14.7368 14.5389V8.00001H13.6842C10.9777 8.00001 8.33201 8.82111 6.08168 10.3595C3.83134 11.8977 2.07739 14.0842 1.04165 16.6424ZM12.6316 22V10.2029C10.713 10.3821 8.86244 11.049 7.2513 12.1503C5.34714 13.4519 3.86308 15.3021 2.98668 17.4667C2.11028 19.6313 1.88098 22.0131 2.32776 24.3111C2.77454 26.609 3.87735 28.7198 5.49664 30.3765C7.116 32.0332 9.17918 33.1614 11.4253 33.6185C13.6714 34.0756 15.9995 33.841 18.1153 32.9444C20.1461 32.0838 21.8937 30.6504 23.1559 28.814C22.1993 29.2786 21.1293 29.5385 20 29.5385C15.9306 29.5385 12.6316 26.1633 12.6316 22ZM27.3684 33.7971V22C27.3684 17.8366 24.0694 14.4615 20 14.4615C18.8707 14.4615 17.8007 14.7214 16.8441 15.186C18.1063 13.3496 19.8539 11.9161 21.8847 11.0556C24.0005 10.159 26.3286 9.92439 28.5747 10.3815C30.8208 10.8386 32.884 11.9668 34.5034 13.6235C36.1227 15.2802 37.2255 17.391 37.6722 19.6889C38.119 21.9869 37.8897 24.3687 37.0133 26.5333C36.137 28.6979 34.6529 30.5481 32.7487 31.8497C31.1376 32.951 29.287 33.6179 27.3684 33.7971ZM19.8947 27.3836C17.0715 27.3269 14.7933 24.996 14.7379 22.1077H16.7291C18.2999 22.474 19.5365 23.739 19.8947 25.3461V27.3836ZM20.1052 27.3836C22.9284 27.3269 25.2067 24.996 25.2621 22.1077H23.2709C21.6999 22.474 20.4633 23.7392 20.1052 25.3465V27.3836ZM25.2621 21.8923C25.2067 19.004 22.9284 16.6731 20.1052 16.6164V18.6535C20.4633 20.2607 21.6998 21.5259 23.2706 21.8923H25.2621ZM19.8947 16.6164C17.0716 16.6731 14.7933 19.004 14.7379 21.8923H16.7294C18.3001 21.5259 19.5366 20.2609 19.8947 18.6539V16.6164Z" fill="#8046FD"/>
    </svg>
    